<?xml version="1.0" encoding="UTF-8"?>
<svg id="icon" xmlns="http://www.w3.org/2000/svg" viewBox="0 0 149 154">
  <defs>
    <style>
      .cls-1 {
        fill: #7c6d69;
        stroke-width: 0px;
      }

      .cls-2 {
        fill: none;
        stroke: #fff;
        stroke-linecap: round;
        stroke-width: 3px;
      }

      .cls-2, .cls-3, .cls-4 {
        stroke-miterlimit: 10;
      }

      .cls-3 {
        fill: #6284ef;
        stroke: #ea9898;
      }

      .cls-3, .cls-4 {
        stroke-width: 4px;
      }

      .cls-4 {
        fill: #70f8ba;
        stroke: #cafe48;
      }
    </style>
  </defs>
  <g id="Logo-2" data-name="Logo">
    <g id="clean">
      <path class="cls-1" d="M94.08,38.45c-.1.03-.2.06-.31.1,1.72,2.39,2.87,5.2,3.27,8.26.25,1.88.22,3.83-.18,5.85-1.55,7.92-8.24,14.03-16.28,14.74-10.83.95-19.91-7.56-19.91-18.19,0-.81.06-1.61.16-2.39.4-3.1,1.59-5.96,3.35-8.37-10.21-3.27-17.4-27.66-23.47-36.22L1.25,85.73l38.84,67.27h77.69s22.07-47.03,29.28-65.06c4.36-10.89-7.84-32.36-7.84-32.36-9.07-15.71-27.87-22.66-45.15-17.14ZM115.46,103.99c-10.08,0-18.26-8.17-18.26-18.26s8.18-18.27,18.26-18.27,18.27,8.18,18.27,18.27-8.18,18.26-18.27,18.26Z"/>
      <path class="cls-4" d="M128.28,85.87c0,7.16-5.79,12.96-12.93,12.96s-12.93-5.8-12.93-12.96,5.79-12.97,12.93-12.97,12.93,5.81,12.93,12.97Z"/>
      <path class="cls-3" d="M91.53,49.49c0,6.92-5.61,12.52-12.52,12.52s-12.52-5.6-12.52-12.52c0-.56.04-1.1.11-1.64.8-6.14,6.05-10.88,12.41-10.88s11.61,4.74,12.41,10.88c.07.54.11,1.09.11,1.64Z"/>
      <polyline class="cls-2" points="73.32 21.56 92.92 151.13 .46 83.59 98.61 86.31"/>
    </g>
  </g>
</svg>